<svg xmlns="http://www.w3.org/2000/svg" version="1.1" xmlns:xlink="http://www.w3.org/1999/xlink" xmlns:svgjs="http://svgjs.dev/svgjs" width="1000" height="588" viewBox="0 0 1000 588"><g transform="matrix(1,0,0,1,-0.6060469468233691,-0.20040120768402403)"><svg viewBox="0 0 396 233" data-background-color="#ffffff" preserveAspectRatio="xMidYMid meet" height="588" width="1000" xmlns="http://www.w3.org/2000/svg" xmlns:xlink="http://www.w3.org/1999/xlink"><g id="tight-bounds" transform="matrix(1,0,0,1,0.23999459094204667,0.07941068263669138)"><svg viewBox="0 0 395.52 232.84117728247364" height="232.84117728247364" width="395.52"><g><svg viewBox="0 0 395.52 232.84117728247364" height="232.84117728247364" width="395.52"><g transform="matrix(1,0,0,1,0,140.05092956713622)"><svg viewBox="0 0 395.52 92.79024771533742" height="92.79024771533742" width="395.52"><g id="textblocktransform"><svg viewBox="0 0 395.52 92.79024771533742" height="92.79024771533742" width="395.52" id="textblock"><g><svg viewBox="0 0 395.52 50.046625766871166" height="50.046625766871166" width="395.52"><g transform="matrix(1,0,0,1,0,0)"><svg width="395.52" viewBox="3.25 -35.5 286.5 36.2599983215332" height="50.046625766871166" data-palette-color="#222222"><path d="M31.3-17.5L31.3-17.5Q31.3-15.09 30.68-12.85 30.05-10.62 28.91-8.68 27.76-6.74 26.17-5.14 24.58-3.54 22.63-2.39 20.68-1.25 18.44-0.62 16.21 0 13.79 0L13.79 0 3.25 0 3.25-35.01 13.79-35.01Q16.21-35.01 18.44-34.39 20.68-33.76 22.63-32.62 24.58-31.47 26.17-29.87 27.76-28.27 28.91-26.33 30.05-24.39 30.68-22.16 31.3-19.92 31.3-17.5ZM24.29-17.5L24.29-17.5Q24.29-19.68 23.47-21.58 22.66-23.49 21.23-24.91 19.8-26.34 17.88-27.17 15.97-28 13.79-28L13.79-28 10.3-28 10.3-7.01 13.79-7.01Q15.97-7.01 17.88-7.82 19.8-8.64 21.23-10.07 22.66-11.5 23.47-13.42 24.29-15.33 24.29-17.5ZM42.94-35.01L42.94 0 35.94 0 35.94-35.01 42.94-35.01ZM73.68-9.69L77.39-3.59Q74.95-1.49 71.92-0.37 68.89 0.76 65.64 0.76L65.64 0.76Q63.15 0.76 60.85 0.11 58.54-0.54 56.53-1.72 54.51-2.91 52.85-4.57 51.19-6.23 50.01-8.24 48.82-10.25 48.18-12.56 47.53-14.87 47.53-17.36L47.53-17.36Q47.53-19.85 48.18-22.17 48.82-24.49 50.01-26.5 51.19-28.52 52.85-30.18 54.51-31.84 56.53-33.02 58.54-34.2 60.85-34.85 63.15-35.5 65.64-35.5L65.64-35.5Q68.89-35.5 71.92-34.39 74.95-33.28 77.39-31.15L77.39-31.15 73.68-25.05Q72.14-26.71 70.04-27.6 67.94-28.49 65.64-28.49L65.64-28.49Q63.33-28.49 61.3-27.61 59.27-26.73 57.76-25.23 56.25-23.73 55.37-21.69 54.49-19.65 54.49-17.36L54.49-17.36Q54.49-15.06 55.37-13.05 56.25-11.04 57.76-9.52 59.27-8.01 61.3-7.13 63.33-6.25 65.64-6.25L65.64-6.25Q67.94-6.25 70.04-7.14 72.14-8.03 73.68-9.69L73.68-9.69ZM96.14-28L96.14 0 89.15 0 89.15-28 78.63-28 78.63-35.01 106.63-35.01 106.63-28 96.14-28ZM117.35-35.01L117.35 0 110.34 0 110.34-35.01 117.35-35.01ZM158.14-17.36L158.14-17.36Q158.14-14.87 157.49-12.56 156.85-10.25 155.68-8.24 154.5-6.23 152.84-4.57 151.18-2.91 149.18-1.72 147.18-0.54 144.86 0.11 142.54 0.76 140.05 0.76L140.05 0.76Q137.56 0.76 135.25 0.11 132.95-0.54 130.93-1.72 128.92-2.91 127.26-4.57 125.6-6.23 124.41-8.24 123.23-10.25 122.58-12.56 121.94-14.87 121.94-17.36L121.94-17.36Q121.94-19.85 122.58-22.17 123.23-24.49 124.41-26.49 125.6-28.49 127.26-30.15 128.92-31.81 130.93-32.98 132.95-34.16 135.25-34.8 137.56-35.45 140.05-35.45L140.05-35.45Q142.54-35.45 144.86-34.8 147.18-34.16 149.18-32.98 151.18-31.81 152.84-30.15 154.5-28.49 155.68-26.49 156.85-24.49 157.49-22.17 158.14-19.85 158.14-17.36ZM151.18-17.36L151.18-17.36Q151.18-19.65 150.3-21.69 149.43-23.73 147.92-25.23 146.42-26.73 144.38-27.61 142.35-28.49 140.05-28.49L140.05-28.49Q137.73-28.49 135.71-27.61 133.68-26.73 132.17-25.23 130.65-23.73 129.77-21.69 128.89-19.65 128.89-17.36L128.89-17.36Q128.89-15.06 129.77-13.05 130.65-11.04 132.17-9.52 133.68-8.01 135.71-7.13 137.73-6.25 140.05-6.25L140.05-6.25Q142.35-6.25 144.38-7.13 146.42-8.01 147.92-9.52 149.43-11.04 150.3-13.05 151.18-15.06 151.18-17.36ZM190.73-35.01L190.73 0 183.24 0 169.74-23.05 169.74 0 162.73 0 162.73-35.01 170.22-35.01 183.73-11.94 183.73-35.01 190.73-35.01ZM203.82-13.99L217.83-13.99 217.83-21Q217.83-22.44 217.28-23.72 216.73-25 215.78-25.95 214.83-26.9 213.54-27.45 212.26-28 210.82-28L210.82-28Q209.38-28 208.1-27.45 206.82-26.9 205.87-25.95 204.91-25 204.36-23.72 203.82-22.44 203.82-21L203.82-21 203.82-13.99ZM224.84-21L224.84 0 217.83 0 217.83-7.01 203.82-7.01 203.82 0 196.83 0 196.83-21Q196.83-23.9 197.93-26.45 199.03-29 200.92-30.91 202.81-32.81 205.37-33.91 207.92-35.01 210.82-35.01L210.82-35.01Q213.73-35.01 216.28-33.91 218.83-32.81 220.73-30.91 222.64-29 223.74-26.45 224.84-23.9 224.84-21L224.84-21ZM244.93-28L237.92-28 237.92-13.99 244.93-13.99Q246.37-13.99 247.64-14.54 248.91-15.09 249.86-16.04 250.81-16.99 251.36-18.27 251.91-19.56 251.91-21L251.91-21Q251.91-22.44 251.36-23.72 250.81-25 249.86-25.95 248.91-26.9 247.64-27.45 246.37-28 244.93-28L244.93-28ZM237.92-7.01L237.92 0 230.91 0 230.91-35.01 244.93-35.01Q246.86-35.01 248.64-34.51 250.42-34.01 251.97-33.09 253.52-32.18 254.8-30.9 256.08-29.61 257-28.05 257.91-26.49 258.42-24.71 258.92-22.92 258.92-21L258.92-21Q258.92-19.19 258.46-17.48 258.01-15.77 257.17-14.23 256.33-12.7 255.11-11.4 253.89-10.11 252.37-9.16L252.37-9.16 256.25 0 248.81 0 245.76-7.06 237.92-7.01ZM279.25-10.96L279.25 0 272.27 0 272.27-10.96Q269.95-11.55 268.01-12.84 266.07-14.14 264.67-15.93 263.28-17.72 262.51-19.91 261.75-22.09 261.75-24.51L261.75-24.51 261.75-35.01 268.75-35.01 268.75-24.51Q268.75-23.07 269.3-21.79 269.85-20.51 270.8-19.56 271.75-18.6 273.04-18.05 274.32-17.5 275.76-17.5L275.76-17.5Q277.2-17.5 278.48-18.05 279.76-18.6 280.71-19.56 281.67-20.51 282.22-21.79 282.77-23.07 282.77-24.51L282.77-24.51 282.77-35.01 289.75-35.01 289.75-24.51Q289.75-22.09 288.98-19.91 288.21-17.72 286.82-15.93 285.43-14.14 283.5-12.84 281.57-11.55 279.25-10.96L279.25-10.96Z" opacity="1" transform="matrix(1,0,0,1,0,0)" fill="#222222" class="wordmark-text-0" data-fill-palette-color="primary" id="text-0"></path></svg></g></svg></g><g transform="matrix(1,0,0,1,0,61.86143299141104)"><svg viewBox="0 0 395.52 30.92881472392638" height="30.92881472392638" width="395.52"><g transform="matrix(1,0,0,1,0,0)"><svg width="395.52" viewBox="3.5 -34.54999923706055 446.29998779296875 34.89999771118164" height="30.92881472392638" data-palette-color="#222222"><path d="M15-28.7L15-7.5Q15-3.6 13.55-1.8 12.1 0 9.15 0L9.15 0Q6.25 0 4.88-1.55 3.5-3.1 3.5-7.1L3.5-7.1 3.5-28.25Q3.5-34.25 9.15-34.25L9.15-34.25Q12.05-34.25 13.53-33.15 15-32.05 15-28.7L15-28.7ZM222.23-24.85L222.23-24.85Q222.23-25.9 221.35-26.65 220.48-27.4 219.28-27.4L219.28-27.4Q216.88-27.4 215.33-24.68 213.78-21.95 213.78-18.5L213.78-18.5Q213.78-15.85 214.78-13.73 215.78-11.6 217.68-10.35 219.58-9.1 222.08-9.1L222.08-9.1Q223.93-9.1 225.63-9.83 227.33-10.55 228.38-11.43 229.43-12.3 230.55-13.03 231.68-13.75 232.53-13.75L232.53-13.75Q233.63-13.75 234.43-12.88 235.23-12 235.23-11.05L235.23-11.05Q235.23-10 234.6-8.6 233.98-7.2 232.63-5.63 231.28-4.05 229.48-2.73 227.68-1.4 225-0.53 222.33 0.35 219.38 0.35L219.38 0.35Q215.48 0.35 212.15-0.83 208.83-2 206.38-4.17 203.93-6.35 202.53-9.65 201.13-12.95 201.13-17.05L201.13-17.05Q201.13-25.15 205.98-29.85 210.83-34.55 218.68-34.55L218.68-34.55Q222.68-34.55 226.08-33.2 229.48-31.85 231.48-29.45 233.48-27.05 233.48-24.2L233.48-24.2Q233.48-20.9 231.28-18.23 229.08-15.55 225.58-15.55L225.58-15.55Q223.58-15.55 221.98-16.65 220.38-17.75 220.38-19.8L220.38-19.8Q220.38-20.75 221.3-22.45 222.23-24.15 222.23-24.85ZM439.4-25.6L439.4-7.5Q439.4-4.65 438.7-2.98 438-1.3 436.78-0.65 435.55 0 433.55 0L433.55 0Q430.6 0 429.28-1.58 427.95-3.15 427.9-7.15L427.9-7.15 427.8-25.6 423.55-25.6Q420.4-25.6 418.83-26.6 417.25-27.6 417.25-30.15L417.25-30.15Q417.25-31.7 417.88-32.6 418.5-33.5 419.75-33.88 421-34.25 423.1-34.25L423.1-34.25 444.5-34.25Q447.3-34.25 448.55-33.25 449.8-32.25 449.8-29.8L449.8-29.8Q449.8-28.15 449.08-27.23 448.35-26.3 447.15-25.95 445.95-25.6 444.05-25.6L444.05-25.6 439.4-25.6Z" opacity="1" transform="matrix(1,0,0,1,0,0)" fill="#222222" class="slogan-text-1" data-fill-palette-color="secondary" id="text-1"></path></svg></g></svg></g></svg></g></svg></g><g transform="matrix(1,0,0,1,133.53592611274195,0)"><svg viewBox="0 0 128.44814777451612 128.23612234259633" height="128.23612234259633" width="128.44814777451612"><g><svg xmlns="http://www.w3.org/2000/svg" xmlns:xlink="http://www.w3.org/1999/xlink" version="1.1" x="0" y="0" viewBox="0 0.20499849319458008 99.95999908447266 99.79499816894531" enable-background="new 0 0 100 100" xml:space="preserve" height="128.23612234259633" width="128.44814777451612" class="icon-icon-0" data-fill-palette-color="accent" id="icon-0"><g fill="#f500a2" data-fill-palette-color="accent"><circle cx="49.98" cy="50.02" r="8.3" fill="#f500a2" data-fill-palette-color="accent"></circle><path d="M57.492 7.246c0 3.889-3.152 26.404-7.041 26.404-3.888 0-7.041-22.516-7.041-26.404s3.153-7.041 7.041-7.041C54.34 0.205 57.492 3.357 57.492 7.246z" fill="#f500a2" data-fill-palette-color="accent"></path><path d="M43.41 92.958c0-3.889 3.153-26.403 7.041-26.403 3.889 0 7.041 22.515 7.041 26.403S54.34 100 50.451 100C46.563 100 43.41 96.847 43.41 92.958z" fill="#f500a2" data-fill-palette-color="accent"></path><path d="M85.757 24.872c-2.791 2.707-21.142 16.131-23.849 13.341-2.708-2.79 11.248-20.736 14.038-23.445 2.79-2.707 7.249-2.643 9.956 0.148C88.612 17.705 88.546 22.163 85.757 24.872z" fill="#f500a2" data-fill-palette-color="accent"></path><path d="M14.773 75.181c2.79-2.708 21.14-16.129 23.849-13.342 2.707 2.792-11.249 20.736-14.039 23.445-2.789 2.71-7.247 2.645-9.955-0.146C11.919 82.348 11.985 77.892 14.773 75.181z" fill="#f500a2" data-fill-palette-color="accent"></path><path d="M74.163 86.315c-2.63-2.866-15.548-21.574-12.685-24.207C64.342 59.479 81.9 73.92 84.53 76.785c2.633 2.861 2.445 7.316-0.416 9.947C81.25 89.364 76.797 89.177 74.163 86.315z" fill="#f500a2" data-fill-palette-color="accent"></path><path d="M24.717 14.668c2.716 2.781 16.189 21.094 13.407 23.809-2.781 2.717-20.767-11.188-23.483-13.973-2.717-2.779-2.664-7.239 0.12-9.957C17.542 11.832 22.002 11.885 24.717 14.668z" fill="#f500a2" data-fill-palette-color="accent"></path><path d="M7.041 42.756c3.89 0 26.403 3.154 26.403 7.042 0 3.889-22.514 7.042-26.403 7.042C3.153 56.84 0 53.687 0 49.798 0 45.91 3.153 42.756 7.041 42.756z" fill="#f500a2" data-fill-palette-color="accent"></path><path d="M92.918 57.059c-3.889 0-26.402-3.15-26.402-7.039s22.514-7.041 26.402-7.041c3.89 0 7.042 3.152 7.042 7.041S96.808 57.059 92.918 57.059z" fill="#f500a2" data-fill-palette-color="accent"></path></g></svg></g></svg></g><g></g></svg></g><defs></defs></svg><rect width="395.52" height="232.84117728247364" fill="none" stroke="none" visibility="hidden"></rect></g></svg></g></svg>